<svg width="50" height="29" viewBox="0 0 50 29" fill="none" xmlns="http://www.w3.org/2000/svg">
<g clip-path="url(#clip0_28_521)">
<path d="M49.8604 27.7375C49.8439 27.6362 49.8283 27.5361 49.8113 27.4359C49.3789 24.8532 48.5354 22.3548 47.3125 20.0336C46.1154 17.7591 44.5704 15.6814 42.7324 13.874C41.3903 12.5526 39.9022 11.3849 38.2963 10.393C38.3059 10.3775 38.3139 10.3605 38.3236 10.3447C38.8279 9.4822 39.3338 8.6207 39.8383 7.75786L41.318 5.23138C41.673 4.62702 42.0273 4.02111 42.3801 3.41675C42.4638 3.27304 42.5304 3.12501 42.5799 2.97266C42.7486 2.45367 42.7237 1.89198 42.5096 1.38965C42.4679 1.29169 42.4195 1.19683 42.3645 1.10506C42.1691 0.781534 41.8952 0.511451 41.5676 0.319357C41.2694 0.144455 40.9353 0.0380811 40.59 0.00809C40.4458 -0.00386257 40.3008 -0.00256815 40.1568 0.0119567C40.0381 0.0240722 39.92 0.0453389 39.8025 0.0757567C39.5108 0.152254 39.2372 0.284995 38.9975 0.466371C38.7577 0.647746 38.5565 0.874187 38.4053 1.13271C38.051 1.73726 37.6967 2.34298 37.3432 2.94734L35.8635 5.47401C35.359 6.33666 34.8531 7.19816 34.3488 8.06081C34.2937 8.15496 34.2381 8.24892 34.1832 8.34443C34.1069 8.31388 34.0306 8.28411 33.9543 8.25511C31.173 7.20531 28.1559 6.63111 25.002 6.63111C24.9156 6.63111 24.8303 6.63111 24.7434 6.63227C21.9393 6.65992 19.2449 7.14267 16.7313 8.0088C16.4414 8.10897 16.1536 8.21481 15.868 8.32626C15.8168 8.23829 15.7641 8.15013 15.7137 8.06197C15.2092 7.19932 14.7033 6.33782 14.199 5.47517L12.7193 2.9483C12.3644 2.34391 12.0103 1.73904 11.657 1.13368C11.4386 0.760041 11.1171 0.4558 10.7302 0.25664C10.3433 0.05748 9.90709 -0.0283389 9.47266 0.00925C9.12681 0.0382273 8.79217 0.144808 8.49414 0.320903C8.16677 0.51302 7.89306 0.783028 7.69785 1.10642C7.64297 1.19806 7.59395 1.29337 7.55293 1.3912C7.33885 1.89349 7.31356 2.45506 7.48164 2.97421C7.53223 3.12617 7.59766 3.27465 7.68145 3.4181C8.03638 4.0225 8.39048 4.62738 8.74375 5.23273C9.23763 6.07502 9.73112 6.91724 10.2242 7.7594C10.7285 8.62206 11.2336 9.48355 11.7379 10.3462C11.7418 10.3536 11.7469 10.3607 11.7506 10.3679C10.7357 10.9919 9.76688 11.6866 8.85156 12.4468C7.21413 13.8071 5.75724 15.3671 4.51563 17.0897C3.83893 18.0285 3.22938 19.0131 2.69141 20.0361C1.76271 21.799 1.05168 23.6661 0.573633 25.5971C0.423643 26.206 0.296537 26.8202 0.192578 27.4384C0.175586 27.5386 0.159961 27.6399 0.144336 27.74C0.0878892 28.102 0.0397648 28.4653 0 28.8295H50C49.96 28.4638 49.9122 28.1006 49.8566 27.7398L49.8604 27.7375Z" fill="#34A853"/>
<path d="M38.006 21.9843C39.0064 21.325 39.1519 19.7996 38.3304 18.5777C37.5095 17.3553 36.033 16.8992 35.033 17.5583C34.0326 18.2176 33.8869 19.743 34.7083 20.965C35.5292 22.1873 37.0062 22.6435 38.006 21.9843ZM15.3357 20.9693C16.1572 19.7472 16.0115 18.222 15.0111 17.5627C14.0105 16.9035 12.5345 17.3597 11.713 18.5816C10.8921 19.8041 11.0376 21.3293 12.0376 21.9885C13.038 22.6478 14.5148 22.1915 15.3357 20.9693Z" fill="#202124"/>
</g>
<defs>
<clipPath id="clip0_28_521">
<rect width="50" height="29" fill="white"/>
</clipPath>
</defs>
</svg>
