<svg width="22" height="22" viewBox="0 0 22 22" fill="none" xmlns="http://www.w3.org/2000/svg">
<path d="M10.8333 0C9.41068 0 8.00196 0.280213 6.6876 0.824638C5.37324 1.36906 4.17898 2.16704 3.17301 3.17301C1.14137 5.20465 0 7.96016 0 10.8333C0 15.6217 3.10917 19.6842 7.41 21.125C7.95167 21.2117 8.125 20.8758 8.125 20.5833V18.7525C5.12417 19.4025 4.485 17.3008 4.485 17.3008C3.98667 16.0442 3.2825 15.7083 3.2825 15.7083C2.29667 15.0367 3.35833 15.0583 3.35833 15.0583C4.44167 15.1342 5.01583 16.1742 5.01583 16.1742C5.95833 17.8208 7.55083 17.3333 8.16833 17.0733C8.26583 16.3692 8.5475 15.8925 8.85083 15.6217C6.44583 15.3508 3.92167 14.4192 3.92167 10.2917C3.92167 9.08917 4.33333 8.125 5.0375 7.35583C4.92917 7.085 4.55 5.95833 5.14583 4.49583C5.14583 4.49583 6.05583 4.20333 8.125 5.60083C8.98083 5.3625 9.9125 5.24333 10.8333 5.24333C11.7542 5.24333 12.6858 5.3625 13.5417 5.60083C15.6108 4.20333 16.5208 4.49583 16.5208 4.49583C17.1167 5.95833 16.7375 7.085 16.6292 7.35583C17.3333 8.125 17.745 9.08917 17.745 10.2917C17.745 14.43 15.21 15.34 12.7942 15.6108C13.1842 15.9467 13.5417 16.6075 13.5417 17.615V20.5833C13.5417 20.8758 13.715 21.2225 14.2675 21.125C18.5683 19.6733 21.6667 15.6217 21.6667 10.8333C21.6667 9.41068 21.3865 8.00196 20.842 6.6876C20.2976 5.37324 19.4996 4.17898 18.4937 3.17301C17.4877 2.16704 16.2934 1.36906 14.9791 0.824638C13.6647 0.280213 12.256 0 10.8333 0Z" fill="#673AB7"/>
</svg>
