<svg width="80" height="80" viewBox="0 0 80 80" fill="none" xmlns="http://www.w3.org/2000/svg">
<mask id="path-1-inside-1_27_515" fill="white">
<path d="M77.5 30.0638V26.5438L39.985 2.5L2.5 26.5425V30.0625L4.54375 28.7512L5.71875 30.3425L2.5 32.41V34.7537H5.77125V37.0563H2.5V40H9.6875V41.4938H10.625V65.9375H9.6875V68.125H9.0625V70.4688H6.875V72.8125H4.6875V75.1562H2.5V77.5H77.5V75.1562H75.3125V72.8125H73.125V70.4688H70.9375V68.125H70.3125V65.9375H69.375V41.4938H70.3125V40H77.5V37.0563H74.2288V34.7537H77.5V32.41L74.28 30.3463L75.4563 28.755L77.5 30.0638ZM12.2587 65.025H11.3737V42.4738H12.2587V65.025ZM13.9637 65.025H13.08V42.4738H13.9637V65.025ZM15.6687 65.025H14.785V42.4738H15.6687V65.025ZM17.375 65.025H16.49V42.4738H17.375V65.025ZM27.7075 66.0138H26.77V68.125H19.0625V65.9375H18.125V41.4938H19.0625V40H26.77V41.4938H27.7075V66.0138ZM29.3412 65.025H28.4575V42.4738H29.3412V65.025ZM31.0475 65.025H30.1625V42.4738H31.0475V65.025ZM32.7525 65.025H31.8675V42.4738H32.7525V65.025ZM34.4575 65.025H33.5737V42.4738H34.4575V65.025ZM44.7913 66.0138H43.8538V68.125H36.145V66.0138H35.2075V41.4938H36.145V40H43.8538V41.4938H44.7913V66.0138ZM46.425 65.025H45.5412V42.4738H46.425V65.025ZM48.1313 65.025H47.2463V42.4738H48.1313V65.025ZM49.8363 65.025H48.9512V42.4738H49.8363V65.025ZM51.5413 65.025H50.6575V42.4738H51.5413V65.025ZM61.875 65.9375H60.9375V68.125H53.2288V66.0138H52.2913V41.4938H53.2288V40H60.9375V41.4938H61.875V65.9375ZM63.5088 65.025H62.6237V42.4738H63.5088V65.025ZM65.2138 65.025H64.33V42.4738H65.2138V65.025ZM66.9187 65.025H66.035V42.4738H66.9187V65.025ZM68.625 65.025H67.74V42.4738H68.625V65.025ZM71.7288 37.0563H8.27125V34.7537H71.7288V37.0563ZM8.8525 32.41L39.985 11.8525L71.1475 32.4088L8.8525 32.41ZM72.1712 28.9937L39.985 8.36375L7.8275 28.9913L6.6525 27.4L39.985 6.0175L73.3462 27.4012L72.1712 28.9937Z"/>
</mask>
<path d="M77.5 30.0638V26.5438L39.985 2.5L2.5 26.5425V30.0625L4.54375 28.7512L5.71875 30.3425L2.5 32.41V34.7537H5.77125V37.0563H2.5V40H9.6875V41.4938H10.625V65.9375H9.6875V68.125H9.0625V70.4688H6.875V72.8125H4.6875V75.1562H2.5V77.5H77.5V75.1562H75.3125V72.8125H73.125V70.4688H70.9375V68.125H70.3125V65.9375H69.375V41.4938H70.3125V40H77.5V37.0563H74.2288V34.7537H77.5V32.41L74.28 30.3463L75.4563 28.755L77.5 30.0638ZM12.2587 65.025H11.3737V42.4738H12.2587V65.025ZM13.9637 65.025H13.08V42.4738H13.9637V65.025ZM15.6687 65.025H14.785V42.4738H15.6687V65.025ZM17.375 65.025H16.49V42.4738H17.375V65.025ZM27.7075 66.0138H26.77V68.125H19.0625V65.9375H18.125V41.4938H19.0625V40H26.77V41.4938H27.7075V66.0138ZM29.3412 65.025H28.4575V42.4738H29.3412V65.025ZM31.0475 65.025H30.1625V42.4738H31.0475V65.025ZM32.7525 65.025H31.8675V42.4738H32.7525V65.025ZM34.4575 65.025H33.5737V42.4738H34.4575V65.025ZM44.7913 66.0138H43.8538V68.125H36.145V66.0138H35.2075V41.4938H36.145V40H43.8538V41.4938H44.7913V66.0138ZM46.425 65.025H45.5412V42.4738H46.425V65.025ZM48.1313 65.025H47.2463V42.4738H48.1313V65.025ZM49.8363 65.025H48.9512V42.4738H49.8363V65.025ZM51.5413 65.025H50.6575V42.4738H51.5413V65.025ZM61.875 65.9375H60.9375V68.125H53.2288V66.0138H52.2913V41.4938H53.2288V40H60.9375V41.4938H61.875V65.9375ZM63.5088 65.025H62.6237V42.4738H63.5088V65.025ZM65.2138 65.025H64.33V42.4738H65.2138V65.025ZM66.9187 65.025H66.035V42.4738H66.9187V65.025ZM68.625 65.025H67.74V42.4738H68.625V65.025ZM71.7288 37.0563H8.27125V34.7537H71.7288V37.0563ZM8.8525 32.41L39.985 11.8525L71.1475 32.4088L8.8525 32.41ZM72.1712 28.9937L39.985 8.36375L7.8275 28.9913L6.6525 27.4L39.985 6.0175L73.3462 27.4012L72.1712 28.9937Z" fill="#FCEEC3" stroke="#F2D385" stroke-width="2" mask="url(#path-1-inside-1_27_515)"/>
<path d="M40.44 28.5937C40.4164 28.5383 40.3774 28.4909 40.3275 28.4572C40.2776 28.4235 40.219 28.4049 40.1588 28.4037H39.8438C39.7836 28.4049 39.725 28.4235 39.6751 28.4572C39.6252 28.4909 39.5861 28.5383 39.5625 28.5937L39.06 28.3037L37.8525 27.6125V30.375L39.06 29.6837L39.5625 29.3962C39.6125 29.5087 39.7188 29.5862 39.8438 29.5862H40.1588C40.219 29.585 40.2776 29.5665 40.3275 29.5328C40.3774 29.499 40.4164 29.4516 40.44 29.3962L40.9425 29.6837L42.1475 30.375V27.6125L40.9425 28.3037L40.44 28.5937ZM41.0675 25.1C40.7339 25.2564 40.3698 25.337 40.0013 25.3362C39.6329 25.3374 39.2688 25.2572 38.935 25.1012C38.6058 24.9445 38.3257 24.7007 38.125 24.3962C38.0813 24.765 38.2713 25.17 38.6288 25.4537C38.98 25.7412 39.49 25.9125 40.0025 25.91C40.5125 25.9125 41.0238 25.7437 41.375 25.4537C41.7313 25.17 41.9225 24.765 41.8775 24.3962C41.6792 24.7024 41.3984 24.9463 41.0675 25.1Z" fill="#FCEEC3"/>
<path d="M35.1299 20.3326C34.9846 20.3666 34.8443 20.4191 34.7124 20.4888C34.6686 20.5113 34.6586 20.5251 34.6586 20.6038V20.7063C34.6586 20.8938 34.6361 20.8213 34.7711 20.8988C34.817 20.9254 34.8584 20.9592 34.8936 20.9988C34.7686 21.4501 34.7024 21.9288 34.7024 22.4226C34.704 23.1781 34.8672 23.9245 35.181 24.6118C35.4948 25.299 35.952 25.9112 36.5219 26.4072C37.0918 26.9033 37.7612 27.2717 38.4852 27.4877C39.2091 27.7037 39.9709 27.7624 40.7195 27.6598C41.468 27.5571 42.1859 27.2956 42.825 26.8927C43.4641 26.4898 44.0097 25.9548 44.425 25.3237C44.8404 24.6926 45.1159 23.9799 45.2332 23.2336C45.3504 22.4872 45.3067 21.7244 45.1049 20.9963C45.1419 20.9587 45.1834 20.926 45.2286 20.8988C45.3649 20.8201 45.3411 20.8938 45.3411 20.7063V20.6038C45.3411 20.5251 45.3336 20.5113 45.2899 20.4888C45.2161 20.4526 45.1399 20.4151 45.0624 20.3888C44.9998 20.3676 44.9364 20.3488 44.8724 20.3326C44.4636 19.3798 43.7843 18.5679 42.9187 17.9974C42.0531 17.4268 41.0391 17.1227 40.0024 17.1226C38.9652 17.1222 37.9507 17.4261 37.0846 17.9967C36.2185 18.5673 35.5389 19.3794 35.1299 20.3326ZM44.6711 22.3176L44.6724 22.4226C44.6724 23.0362 44.5515 23.6439 44.3167 24.2109C44.0818 24.7779 43.7376 25.293 43.3037 25.727C42.8697 26.1609 42.3546 26.5051 41.7876 26.74C41.2206 26.9748 40.6129 27.0957 39.9993 27.0957C39.3856 27.0957 38.7779 26.9748 38.2109 26.74C37.644 26.5051 37.1288 26.1609 36.6949 25.727C36.2609 25.293 35.9167 24.7779 35.6819 24.2109C35.447 23.6439 35.3261 23.0362 35.3261 22.4226L35.3274 22.3176C35.4936 22.9426 35.8624 23.3451 36.4161 23.5551C37.013 23.7772 37.6711 23.7692 38.2624 23.5326C38.5874 23.4051 38.8699 23.2001 39.0949 22.8713C39.4886 22.2901 39.3699 21.9288 39.5736 21.4313C39.7524 20.9988 40.2499 20.9988 40.4286 21.4313C40.6311 21.9288 40.5136 22.2913 40.9074 22.8713C41.1324 23.2013 41.4161 23.4063 41.7386 23.5326C42.3305 23.7683 42.9887 23.7764 43.5861 23.5551C44.1386 23.3451 44.5061 22.9426 44.6711 22.3176ZM39.9999 17.7488C41.7824 17.7488 43.3324 18.7476 44.1186 20.2151C43.542 20.1645 42.9621 20.1612 42.3849 20.2051C41.7307 20.2626 41.1807 20.4067 40.7349 20.6376C40.5042 20.7414 40.2541 20.7951 40.0011 20.7951C39.7482 20.7951 39.4981 20.7414 39.2674 20.6376C38.8199 20.4067 38.269 20.2626 37.6149 20.2051C37.0381 20.1612 36.4586 20.1646 35.8824 20.2151C36.2806 19.4693 36.8741 18.8458 37.5994 18.4114C38.3247 17.977 39.1545 17.748 39.9999 17.7488Z" fill="#FCEEC3"/>
</svg>
