<svg width="80" height="80" viewBox="0 0 80 80" fill="none" xmlns="http://www.w3.org/2000/svg">
<path d="M32.4995 36H47.4995C49.2233 36 50.8772 36.6844 52.0962 37.9033C53.3152 39.1223 53.9995 40.7761 53.9995 42.5V55C53.9995 58.713 52.5244 62.2739 49.8989 64.8994C47.2734 67.5248 43.7125 69 39.9995 69C36.2866 68.9999 32.7255 67.5249 30.1001 64.8994C27.4747 62.2739 25.9995 58.713 25.9995 55V42.5C25.9995 40.7761 26.6848 39.1223 27.9038 37.9033C29.1227 36.6846 30.7759 36.0001 32.4995 36ZM19.0601 41.2109C19.0309 41.52 19.0122 41.8301 19.0044 42.1406L18.9995 42.5V55L19.0063 55.5264C19.0718 58.1565 19.6313 60.7524 20.6567 63.1787C21.5201 65.2216 22.7008 67.111 24.1509 68.7793C20.912 69.3584 17.5581 68.781 14.687 67.123C11.5735 65.3251 9.27499 62.401 8.26025 58.9609L8.16553 58.626L6.22021 51.376H6.22119C6.00044 50.5516 5.94368 49.6919 6.05518 48.8457C6.1667 47.9996 6.44382 47.1834 6.87061 46.4443C7.29754 45.7051 7.86613 45.0566 8.54346 44.5371C9.22076 44.0176 9.99429 43.6368 10.8188 43.416L10.8179 43.415L19.0601 41.2109ZM14.9995 16C17.3864 16 19.676 16.948 21.3638 18.6357C23.0516 20.3236 23.9995 22.6131 23.9995 25C23.9995 27.3869 23.0516 29.6764 21.3638 31.3643C19.676 33.052 17.3864 34 14.9995 34L14.5532 33.9893C12.329 33.8788 10.2185 32.9463 8.63623 31.3643C6.9484 29.6764 5.99951 27.3869 5.99951 25C5.99951 22.6131 6.9484 20.3236 8.63623 18.6357C10.2185 17.0537 12.329 16.1212 14.5532 16.0107L14.9995 16ZM64.9995 16C67.3864 16 69.676 16.948 71.3638 18.6357C73.0516 20.3236 73.9995 22.6131 73.9995 25L73.9888 25.4463C73.8784 27.6708 72.9461 29.7819 71.3638 31.3643C69.676 33.052 67.3864 34 64.9995 34C62.6128 33.9999 60.324 33.0518 58.6362 31.3643C56.9484 29.6764 55.9995 27.3869 55.9995 25C55.9995 22.6131 56.9484 20.3236 58.6362 18.6357C60.324 16.9482 62.6128 16.0001 64.9995 16ZM39.9995 6C43.0494 6 45.9747 7.21159 48.1313 9.36816C50.288 11.5248 51.4995 14.45 51.4995 17.5C51.4995 20.55 50.288 23.4752 48.1313 25.6318C45.9747 27.7884 43.0494 29 39.9995 29C36.9496 28.9999 34.0243 27.7884 31.8677 25.6318C29.7111 23.4752 28.4995 20.5499 28.4995 17.5L28.5142 16.9297C28.6552 14.0874 29.8459 11.39 31.8677 9.36816C34.0243 7.21157 36.9496 6.00008 39.9995 6ZM60.9995 42.4961C60.9979 42.0623 60.9757 41.634 60.936 41.2109L69.1763 43.416C70.0013 43.6368 70.775 44.0183 71.4526 44.5381C72.1301 45.0578 72.6986 45.7058 73.1255 46.4453C73.5525 47.185 73.8297 48.0018 73.9409 48.8486C74.0382 49.5894 74.0068 50.3406 73.8491 51.0693L73.7739 51.3809L71.8335 58.626C71.3472 60.4408 70.5007 62.1394 69.3442 63.6201C68.1878 65.1008 66.745 66.3337 65.1021 67.2451C63.4591 68.1565 61.6492 68.7275 59.7808 68.9248C58.4656 69.0637 57.138 69.0143 55.8403 68.7822C57.2924 67.1134 58.4756 65.2239 59.3403 63.1797C60.4351 60.5916 60.9994 57.8101 60.9995 55V42.4961Z" fill="#FCEEC3" stroke="#F2D385" stroke-width="2"/>
</svg>
