<svg width="80" height="80" viewBox="0 0 80 80" fill="none" xmlns="http://www.w3.org/2000/svg">
<path d="M23.7871 3H56.2129C57.3164 3.00013 58.4567 3.53506 59.3291 4.37305C60.2029 5.21241 60.75 6.29938 60.75 7.33887V72.6611C60.75 73.7006 60.2035 74.7877 59.3301 75.627C58.4579 76.4649 57.3171 76.9999 56.2129 77H23.7871C22.6836 76.9999 21.5433 76.4649 20.6709 75.627C19.7971 74.7876 19.25 73.7006 19.25 72.6611L19.251 7.33887L19.2578 7.14355C19.3205 6.16453 19.8518 5.16003 20.6709 4.37305C21.5431 3.53504 22.6835 3.00013 23.7871 3ZM36.459 69.9688C35.697 69.9688 35.0723 70.5811 35.0723 71.3477V73.1064C35.0728 73.2882 35.1096 73.4681 35.1797 73.6357C35.2498 73.8033 35.3525 73.9551 35.4814 74.083C35.6105 74.211 35.7634 74.3122 35.9316 74.3809C36.0991 74.4492 36.2781 74.4831 36.459 74.4824V74.4834H43.541V74.4824C43.7219 74.4831 43.9009 74.4492 44.0684 74.3809C44.2366 74.3122 44.3895 74.211 44.5186 74.083C44.6475 73.9551 44.7502 73.8033 44.8203 73.6357C44.8729 73.51 44.9072 73.3773 44.9209 73.2422L44.9277 73.1064V71.3477C44.9277 70.5811 44.303 69.9688 43.541 69.9688H36.459ZM21.791 68.625H58.209V68.125L58.207 11.875V11.375H21.791V68.625ZM53.5752 6.10156C53.3556 6.10104 53.1377 6.1431 52.9346 6.22656C52.731 6.3102 52.5457 6.43366 52.3896 6.58887C52.2337 6.74404 52.1101 6.92879 52.0254 7.13184C51.9619 7.28421 51.9208 7.44474 51.9043 7.6084L51.8965 7.77246V7.77344C51.8965 8.6979 52.6499 9.44629 53.5752 9.44629C54.499 9.44618 55.2559 8.69921 55.2559 7.77344C55.2557 6.84462 54.4982 6.10167 53.5752 6.10156ZM36.8115 6.72852C36.4714 6.72852 36.2472 6.95501 36.1348 7.14062C36.0164 7.33631 35.959 7.57511 35.959 7.8125C35.959 8.05045 36.0161 8.29005 36.1338 8.48633C36.2451 8.67176 36.4692 8.90137 36.8115 8.90137H43.1885C43.5311 8.90137 43.7561 8.67306 43.8682 8.48535C43.9857 8.28844 44.041 8.04895 44.041 7.8125C44.041 7.57628 43.9857 7.33714 43.8672 7.14062C43.7535 6.9521 43.5279 6.72852 43.1885 6.72852H36.8115Z" fill="#FCEEC3" stroke="#F2D385"/>
<mask id="path-2-inside-1_27_500" fill="white">
<path d="M25.7411 20.6637H29.6474C29.7756 20.664 29.9027 20.639 30.0213 20.5902C30.1398 20.5413 30.2476 20.4696 30.3384 20.379C30.4292 20.2884 30.5013 20.1808 30.5504 20.0624C30.5996 19.9439 30.6249 19.8169 30.6249 19.6887V15.7824C30.6252 15.654 30.6001 15.5267 30.5511 15.408C30.5021 15.2892 30.4301 15.1813 30.3393 15.0905C30.2485 14.9997 30.1406 14.9277 30.0218 14.8787C29.9031 14.8297 29.7758 14.8046 29.6474 14.8049H25.7411C25.6129 14.8049 25.4859 14.8302 25.3674 14.8794C25.249 14.9285 25.1414 15.0006 25.0508 15.0914C24.9602 15.1822 24.8885 15.29 24.8396 15.4086C24.7908 15.5271 24.7658 15.6542 24.7661 15.7824V19.6887C24.7661 20.2274 25.2024 20.6637 25.7411 20.6637ZM33.9436 20.6637H37.8499C37.9781 20.664 38.1052 20.639 38.2238 20.5902C38.3423 20.5413 38.4501 20.4696 38.5409 20.379C38.6317 20.2884 38.7038 20.1808 38.7529 20.0624C38.8021 19.9439 38.8274 19.8169 38.8274 19.6887V15.7824C38.8277 15.654 38.8026 15.5267 38.7536 15.408C38.7046 15.2892 38.6326 15.1813 38.5418 15.0905C38.451 14.9997 38.3431 14.9277 38.2243 14.8787C38.1056 14.8297 37.9783 14.8046 37.8499 14.8049H33.9436C33.8154 14.8049 33.6884 14.8302 33.5699 14.8794C33.4515 14.9285 33.3439 15.0006 33.2533 15.0914C33.1627 15.1822 33.091 15.29 33.0421 15.4086C32.9933 15.5271 32.9683 15.6542 32.9686 15.7824V19.6887C32.9686 20.2274 33.4061 20.6637 33.9436 20.6637ZM42.1474 20.6637H46.0536C46.1819 20.664 46.3089 20.639 46.4275 20.5902C46.5461 20.5413 46.6539 20.4696 46.7447 20.379C46.8355 20.2884 46.9075 20.1808 46.9567 20.0624C47.0058 19.9439 47.0311 19.8169 47.0311 19.6887V15.7824C47.0314 15.654 47.0064 15.5267 46.9574 15.408C46.9084 15.2892 46.8364 15.1813 46.7455 15.0905C46.6547 14.9997 46.5468 14.9277 46.4281 14.8787C46.3093 14.8297 46.1821 14.8046 46.0536 14.8049H42.1474C42.0191 14.8049 41.8921 14.8302 41.7737 14.8794C41.6552 14.9285 41.5476 15.0006 41.4571 15.0914C41.3665 15.1822 41.2947 15.29 41.2459 15.4086C41.197 15.5271 41.172 15.6542 41.1724 15.7824V19.6887C41.1724 20.2274 41.6086 20.6637 42.1474 20.6637ZM50.3499 20.6637H54.2561C54.3844 20.664 54.5114 20.639 54.63 20.5902C54.7486 20.5413 54.8564 20.4696 54.9472 20.379C55.038 20.2884 55.11 20.1808 55.1592 20.0624C55.2083 19.9439 55.2336 19.8169 55.2336 19.6887V15.7824C55.2339 15.654 55.2089 15.5267 55.1599 15.408C55.1109 15.2892 55.0389 15.1813 54.948 15.0905C54.8572 14.9997 54.7493 14.9277 54.6306 14.8787C54.5118 14.8297 54.3846 14.8046 54.2561 14.8049H50.3499C50.2216 14.8049 50.0946 14.8302 49.9762 14.8794C49.8577 14.9285 49.7501 15.0006 49.6596 15.0914C49.569 15.1822 49.4972 15.29 49.4484 15.4086C49.3995 15.5271 49.3745 15.6542 49.3749 15.7824V19.6887C49.3749 20.2274 49.8124 20.6637 50.3499 20.6637ZM25.7411 65.7812H29.6474C29.7756 65.7815 29.9027 65.7565 30.0213 65.7077C30.1398 65.6588 30.2476 65.5871 30.3384 65.4965C30.4292 65.4059 30.5013 65.2983 30.5504 65.1799C30.5996 65.0614 30.6249 64.9344 30.6249 64.8062V60.8987C30.625 60.7703 30.5999 60.6432 30.5508 60.5246C30.5017 60.406 30.4297 60.2983 30.3389 60.2076C30.248 60.1169 30.1402 60.045 30.0215 59.9961C29.9029 59.9471 29.7757 59.9221 29.6474 59.9224H25.7411C25.613 59.9224 25.4861 59.9477 25.3677 59.9968C25.2493 60.0458 25.1418 60.1178 25.0512 60.2084C24.9607 60.2991 24.8889 60.4067 24.84 60.5252C24.7911 60.6436 24.766 60.7705 24.7661 60.8987V64.8062C24.7661 65.3437 25.2024 65.7812 25.7411 65.7812ZM33.9436 65.7812H37.8499C37.9781 65.7815 38.1052 65.7565 38.2238 65.7077C38.3423 65.6588 38.4501 65.5871 38.5409 65.4965C38.6317 65.4059 38.7038 65.2983 38.7529 65.1799C38.8021 65.0614 38.8274 64.9344 38.8274 64.8062V60.8987C38.8275 60.7703 38.8024 60.6432 38.7533 60.5246C38.7042 60.406 38.6322 60.2983 38.5414 60.2076C38.4505 60.1169 38.3427 60.045 38.224 59.9961C38.1054 59.9471 37.9782 59.9221 37.8499 59.9224H33.9436C33.8155 59.9224 33.6886 59.9477 33.5702 59.9968C33.4518 60.0458 33.3443 60.1178 33.2537 60.2084C33.1632 60.2991 33.0914 60.4067 33.0425 60.5252C32.9935 60.6436 32.9685 60.7705 32.9686 60.8987V64.8062C32.9686 65.3437 33.4061 65.7812 33.9436 65.7812ZM42.1474 65.7812H46.0536C46.1819 65.7815 46.3089 65.7565 46.4275 65.7077C46.5461 65.6588 46.6539 65.5871 46.7447 65.4965C46.8355 65.4059 46.9075 65.2983 46.9567 65.1799C47.0058 65.0614 47.0311 64.9344 47.0311 64.8062V60.8987C47.0313 60.7703 47.0061 60.6432 46.957 60.5246C46.9079 60.406 46.8359 60.2983 46.7451 60.2076C46.6543 60.1169 46.5465 60.045 46.4278 59.9961C46.3091 59.9471 46.182 59.9221 46.0536 59.9224H42.1474C42.0192 59.9224 41.8923 59.9477 41.774 59.9968C41.6556 60.0458 41.548 60.1178 41.4575 60.2084C41.3669 60.2991 41.2951 60.4067 41.2462 60.5252C41.1973 60.6436 41.1722 60.7705 41.1724 60.8987V64.8062C41.1724 65.3437 41.6086 65.7812 42.1474 65.7812ZM50.3499 65.7812H54.2561C54.3844 65.7815 54.5114 65.7565 54.63 65.7077C54.7486 65.6588 54.8564 65.5871 54.9472 65.4965C55.038 65.4059 55.11 65.2983 55.1592 65.1799C55.2083 65.0614 55.2336 64.9344 55.2336 64.8062V60.8987C55.2338 60.7703 55.2086 60.6432 55.1595 60.5246C55.1104 60.406 55.0384 60.2983 54.9476 60.2076C54.8568 60.1169 54.749 60.045 54.6303 59.9961C54.5116 59.9471 54.3845 59.9221 54.2561 59.9224H50.3499C50.2217 59.9224 50.0948 59.9477 49.9765 59.9968C49.8581 60.0458 49.7505 60.1178 49.66 60.2084C49.5694 60.2991 49.4976 60.4067 49.4487 60.5252C49.3998 60.6436 49.3747 60.7705 49.3749 60.8987V64.8062C49.3749 65.3437 49.8124 65.7812 50.3499 65.7812ZM25.7411 43.2224H29.6474C29.7756 43.2228 29.9027 43.1978 30.0213 43.1489C30.1398 43.1001 30.2476 43.0283 30.3384 42.9377C30.4292 42.8472 30.5013 42.7396 30.5504 42.6211C30.5996 42.5027 30.6249 42.3757 30.6249 42.2474V38.3399C30.625 38.2116 30.5999 38.0845 30.5508 37.9659C30.5017 37.8473 30.4297 37.7395 30.3389 37.6488C30.248 37.5581 30.1402 37.4862 30.0215 37.4373C29.9029 37.3884 29.7757 37.3634 29.6474 37.3637H25.7411C25.613 37.3637 25.4861 37.3889 25.3677 37.438C25.2493 37.4871 25.1418 37.559 25.0512 37.6497C24.9607 37.7404 24.8889 37.848 24.84 37.9664C24.7911 38.0849 24.766 38.2118 24.7661 38.3399V42.2474C24.7661 42.7862 25.2024 43.2224 25.7411 43.2224ZM33.9436 43.2224H37.8499C37.9781 43.2228 38.1052 43.1978 38.2238 43.1489C38.3423 43.1001 38.4501 43.0283 38.5409 42.9377C38.6317 42.8472 38.7038 42.7396 38.7529 42.6211C38.8021 42.5027 38.8274 42.3757 38.8274 42.2474V38.3399C38.8275 38.2116 38.8024 38.0845 38.7533 37.9659C38.7042 37.8473 38.6322 37.7395 38.5414 37.6488C38.4505 37.5581 38.3427 37.4862 38.224 37.4373C38.1054 37.3884 37.9782 37.3634 37.8499 37.3637H33.9436C33.8155 37.3637 33.6886 37.3889 33.5702 37.438C33.4518 37.4871 33.3443 37.559 33.2537 37.6497C33.1632 37.7404 33.0914 37.848 33.0425 37.9664C32.9935 38.0849 32.9685 38.2118 32.9686 38.3399V42.2474C32.9686 42.7862 33.4061 43.2224 33.9436 43.2224ZM42.1474 43.2224H46.0536C46.1819 43.2228 46.3089 43.1978 46.4275 43.1489C46.5461 43.1001 46.6539 43.0283 46.7447 42.9377C46.8355 42.8472 46.9075 42.7396 46.9567 42.6211C47.0058 42.5027 47.0311 42.3757 47.0311 42.2474V38.3399C47.0313 38.2116 47.0061 38.0845 46.957 37.9659C46.9079 37.8473 46.8359 37.7395 46.7451 37.6488C46.6543 37.5581 46.5465 37.4862 46.4278 37.4373C46.3091 37.3884 46.182 37.3634 46.0536 37.3637H42.1474C42.0192 37.3637 41.8923 37.3889 41.774 37.438C41.6556 37.4871 41.548 37.559 41.4575 37.6497C41.3669 37.7404 41.2951 37.848 41.2462 37.9664C41.1973 38.0849 41.1722 38.2118 41.1724 38.3399V42.2474C41.1724 42.7862 41.6086 43.2224 42.1474 43.2224ZM25.7411 35.7037H29.6474C30.1886 35.7037 30.6249 35.2662 30.6249 34.7274V30.8224C30.6252 30.694 30.6001 30.5667 30.5511 30.448C30.5021 30.3292 30.4301 30.2213 30.3393 30.1305C30.2485 30.0397 30.1406 29.9677 30.0218 29.9187C29.9031 29.8697 29.7758 29.8446 29.6474 29.8449H25.7411C25.6129 29.8449 25.4859 29.8702 25.3674 29.9194C25.249 29.9685 25.1414 30.0406 25.0508 30.1314C24.9602 30.2222 24.8885 30.33 24.8396 30.4486C24.7908 30.5671 24.7658 30.6942 24.7661 30.8224V34.7274C24.766 34.8556 24.7911 34.9825 24.84 35.1009C24.8889 35.2194 24.9607 35.327 25.0512 35.4177C25.1418 35.5083 25.2493 35.5803 25.3677 35.6293C25.4861 35.6784 25.613 35.7037 25.7411 35.7037ZM33.9436 35.7037H37.8499C38.3911 35.7037 38.8274 35.2662 38.8274 34.7274V30.8224C38.8277 30.694 38.8026 30.5667 38.7536 30.448C38.7046 30.3292 38.6326 30.2213 38.5418 30.1305C38.451 30.0397 38.3431 29.9677 38.2243 29.9187C38.1056 29.8697 37.9783 29.8446 37.8499 29.8449H33.9436C33.8154 29.8449 33.6884 29.8702 33.5699 29.9194C33.4515 29.9685 33.3439 30.0406 33.2533 30.1314C33.1627 30.2222 33.091 30.33 33.0421 30.4486C32.9933 30.5671 32.9683 30.6942 32.9686 30.8224V34.7274C32.9686 35.2662 33.4061 35.7037 33.9436 35.7037ZM42.1474 35.7037H46.0536C46.5949 35.7037 47.0311 35.2662 47.0311 34.7274V30.8224C47.0314 30.694 47.0064 30.5667 46.9574 30.448C46.9084 30.3292 46.8364 30.2213 46.7455 30.1305C46.6547 30.0397 46.5468 29.9677 46.4281 29.9187C46.3093 29.8697 46.1821 29.8446 46.0536 29.8449H42.1474C42.0191 29.8449 41.8921 29.8702 41.7737 29.9194C41.6552 29.9685 41.5476 30.0406 41.4571 30.1314C41.3665 30.2222 41.2947 30.33 41.2459 30.4486C41.197 30.5671 41.172 30.6942 41.1724 30.8224V34.7274C41.1722 34.8556 41.1973 34.9825 41.2462 35.1009C41.2951 35.2194 41.3669 35.327 41.4575 35.4177C41.548 35.5083 41.6556 35.5803 41.774 35.6293C41.8923 35.6784 42.0192 35.7037 42.1474 35.7037ZM50.3499 35.7037H54.2561C54.7974 35.7037 55.2336 35.2662 55.2336 34.7274V30.8224C55.2339 30.694 55.2089 30.5667 55.1599 30.448C55.1109 30.3292 55.0389 30.2213 54.948 30.1305C54.8572 30.0397 54.7493 29.9677 54.6306 29.9187C54.5118 29.8697 54.3846 29.8446 54.2561 29.8449H50.3499C50.2216 29.8449 50.0946 29.8702 49.9762 29.9194C49.8577 29.9685 49.7501 30.0406 49.6596 30.1314C49.569 30.2222 49.4972 30.33 49.4484 30.4486C49.3995 30.5671 49.3745 30.6942 49.3749 30.8224V34.7274C49.3749 35.2662 49.8124 35.7037 50.3499 35.7037ZM25.7411 28.1849H29.6474C30.1886 28.1849 30.6249 27.7474 30.6249 27.2074V23.3012C30.6249 22.7637 30.1874 22.3262 29.6474 22.3262H25.7411C25.4825 22.3262 25.2345 22.4289 25.0517 22.6118C24.8688 22.7946 24.7661 23.0426 24.7661 23.3012V27.2074C24.7658 27.3357 24.7908 27.4627 24.8396 27.5813C24.8885 27.6999 24.9602 27.8077 25.0508 27.8985C25.1414 27.9893 25.249 28.0613 25.3674 28.1105C25.4859 28.1596 25.6129 28.1849 25.7411 28.1849ZM33.9436 28.1849H37.8499C38.3911 28.1849 38.8274 27.7474 38.8274 27.2074V23.3012C38.8274 22.7637 38.3899 22.3262 37.8499 22.3262H33.9436C33.685 22.3262 33.437 22.4289 33.2542 22.6118C33.0713 22.7946 32.9686 23.0426 32.9686 23.3012V27.2074C32.9686 27.7474 33.4061 28.1849 33.9436 28.1849ZM42.1474 28.1849H46.0536C46.5949 28.1849 47.0311 27.7474 47.0311 27.2074V23.3012C47.0311 22.7637 46.5936 22.3262 46.0536 22.3262H42.1474C41.8888 22.3262 41.6408 22.4289 41.4579 22.6118C41.2751 22.7946 41.1724 23.0426 41.1724 23.3012V27.2074C41.172 27.3357 41.197 27.4627 41.2459 27.5813C41.2947 27.6999 41.3665 27.8077 41.4571 27.8985C41.5476 27.9893 41.6552 28.0613 41.7737 28.1105C41.8921 28.1596 42.0191 28.1849 42.1474 28.1849ZM50.3499 28.1849H54.2561C54.7974 28.1849 55.2336 27.7474 55.2336 27.2074V23.3012C55.2336 22.7637 54.7961 22.3262 54.2561 22.3262H50.3499C50.0913 22.3262 49.8433 22.4289 49.6604 22.6118C49.4776 22.7946 49.3749 23.0426 49.3749 23.3012V27.2074C49.3749 27.7474 49.8124 28.1849 50.3499 28.1849Z"/>
</mask>
<path d="M25.7411 20.6637H29.6474C29.7756 20.664 29.9027 20.639 30.0213 20.5902C30.1398 20.5413 30.2476 20.4696 30.3384 20.379C30.4292 20.2884 30.5013 20.1808 30.5504 20.0624C30.5996 19.9439 30.6249 19.8169 30.6249 19.6887V15.7824C30.6252 15.654 30.6001 15.5267 30.5511 15.408C30.5021 15.2892 30.4301 15.1813 30.3393 15.0905C30.2485 14.9997 30.1406 14.9277 30.0218 14.8787C29.9031 14.8297 29.7758 14.8046 29.6474 14.8049H25.7411C25.6129 14.8049 25.4859 14.8302 25.3674 14.8794C25.249 14.9285 25.1414 15.0006 25.0508 15.0914C24.9602 15.1822 24.8885 15.29 24.8396 15.4086C24.7908 15.5271 24.7658 15.6542 24.7661 15.7824V19.6887C24.7661 20.2274 25.2024 20.6637 25.7411 20.6637ZM33.9436 20.6637H37.8499C37.9781 20.664 38.1052 20.639 38.2238 20.5902C38.3423 20.5413 38.4501 20.4696 38.5409 20.379C38.6317 20.2884 38.7038 20.1808 38.7529 20.0624C38.8021 19.9439 38.8274 19.8169 38.8274 19.6887V15.7824C38.8277 15.654 38.8026 15.5267 38.7536 15.408C38.7046 15.2892 38.6326 15.1813 38.5418 15.0905C38.451 14.9997 38.3431 14.9277 38.2243 14.8787C38.1056 14.8297 37.9783 14.8046 37.8499 14.8049H33.9436C33.8154 14.8049 33.6884 14.8302 33.5699 14.8794C33.4515 14.9285 33.3439 15.0006 33.2533 15.0914C33.1627 15.1822 33.091 15.29 33.0421 15.4086C32.9933 15.5271 32.9683 15.6542 32.9686 15.7824V19.6887C32.9686 20.2274 33.4061 20.6637 33.9436 20.6637ZM42.1474 20.6637H46.0536C46.1819 20.664 46.3089 20.639 46.4275 20.5902C46.5461 20.5413 46.6539 20.4696 46.7447 20.379C46.8355 20.2884 46.9075 20.1808 46.9567 20.0624C47.0058 19.9439 47.0311 19.8169 47.0311 19.6887V15.7824C47.0314 15.654 47.0064 15.5267 46.9574 15.408C46.9084 15.2892 46.8364 15.1813 46.7455 15.0905C46.6547 14.9997 46.5468 14.9277 46.4281 14.8787C46.3093 14.8297 46.1821 14.8046 46.0536 14.8049H42.1474C42.0191 14.8049 41.8921 14.8302 41.7737 14.8794C41.6552 14.9285 41.5476 15.0006 41.4571 15.0914C41.3665 15.1822 41.2947 15.29 41.2459 15.4086C41.197 15.5271 41.172 15.6542 41.1724 15.7824V19.6887C41.1724 20.2274 41.6086 20.6637 42.1474 20.6637ZM50.3499 20.6637H54.2561C54.3844 20.664 54.5114 20.639 54.63 20.5902C54.7486 20.5413 54.8564 20.4696 54.9472 20.379C55.038 20.2884 55.11 20.1808 55.1592 20.0624C55.2083 19.9439 55.2336 19.8169 55.2336 19.6887V15.7824C55.2339 15.654 55.2089 15.5267 55.1599 15.408C55.1109 15.2892 55.0389 15.1813 54.948 15.0905C54.8572 14.9997 54.7493 14.9277 54.6306 14.8787C54.5118 14.8297 54.3846 14.8046 54.2561 14.8049H50.3499C50.2216 14.8049 50.0946 14.8302 49.9762 14.8794C49.8577 14.9285 49.7501 15.0006 49.6596 15.0914C49.569 15.1822 49.4972 15.29 49.4484 15.4086C49.3995 15.5271 49.3745 15.6542 49.3749 15.7824V19.6887C49.3749 20.2274 49.8124 20.6637 50.3499 20.6637ZM25.7411 65.7812H29.6474C29.7756 65.7815 29.9027 65.7565 30.0213 65.7077C30.1398 65.6588 30.2476 65.5871 30.3384 65.4965C30.4292 65.4059 30.5013 65.2983 30.5504 65.1799C30.5996 65.0614 30.6249 64.9344 30.6249 64.8062V60.8987C30.625 60.7703 30.5999 60.6432 30.5508 60.5246C30.5017 60.406 30.4297 60.2983 30.3389 60.2076C30.248 60.1169 30.1402 60.045 30.0215 59.9961C29.9029 59.9471 29.7757 59.9221 29.6474 59.9224H25.7411C25.613 59.9224 25.4861 59.9477 25.3677 59.9968C25.2493 60.0458 25.1418 60.1178 25.0512 60.2084C24.9607 60.2991 24.8889 60.4067 24.84 60.5252C24.7911 60.6436 24.766 60.7705 24.7661 60.8987V64.8062C24.7661 65.3437 25.2024 65.7812 25.7411 65.7812ZM33.9436 65.7812H37.8499C37.9781 65.7815 38.1052 65.7565 38.2238 65.7077C38.3423 65.6588 38.4501 65.5871 38.5409 65.4965C38.6317 65.4059 38.7038 65.2983 38.7529 65.1799C38.8021 65.0614 38.8274 64.9344 38.8274 64.8062V60.8987C38.8275 60.7703 38.8024 60.6432 38.7533 60.5246C38.7042 60.406 38.6322 60.2983 38.5414 60.2076C38.4505 60.1169 38.3427 60.045 38.224 59.9961C38.1054 59.9471 37.9782 59.9221 37.8499 59.9224H33.9436C33.8155 59.9224 33.6886 59.9477 33.5702 59.9968C33.4518 60.0458 33.3443 60.1178 33.2537 60.2084C33.1632 60.2991 33.0914 60.4067 33.0425 60.5252C32.9935 60.6436 32.9685 60.7705 32.9686 60.8987V64.8062C32.9686 65.3437 33.4061 65.7812 33.9436 65.7812ZM42.1474 65.7812H46.0536C46.1819 65.7815 46.3089 65.7565 46.4275 65.7077C46.5461 65.6588 46.6539 65.5871 46.7447 65.4965C46.8355 65.4059 46.9075 65.2983 46.9567 65.1799C47.0058 65.0614 47.0311 64.9344 47.0311 64.8062V60.8987C47.0313 60.7703 47.0061 60.6432 46.957 60.5246C46.9079 60.406 46.8359 60.2983 46.7451 60.2076C46.6543 60.1169 46.5465 60.045 46.4278 59.9961C46.3091 59.9471 46.182 59.9221 46.0536 59.9224H42.1474C42.0192 59.9224 41.8923 59.9477 41.774 59.9968C41.6556 60.0458 41.548 60.1178 41.4575 60.2084C41.3669 60.2991 41.2951 60.4067 41.2462 60.5252C41.1973 60.6436 41.1722 60.7705 41.1724 60.8987V64.8062C41.1724 65.3437 41.6086 65.7812 42.1474 65.7812ZM50.3499 65.7812H54.2561C54.3844 65.7815 54.5114 65.7565 54.63 65.7077C54.7486 65.6588 54.8564 65.5871 54.9472 65.4965C55.038 65.4059 55.11 65.2983 55.1592 65.1799C55.2083 65.0614 55.2336 64.9344 55.2336 64.8062V60.8987C55.2338 60.7703 55.2086 60.6432 55.1595 60.5246C55.1104 60.406 55.0384 60.2983 54.9476 60.2076C54.8568 60.1169 54.749 60.045 54.6303 59.9961C54.5116 59.9471 54.3845 59.9221 54.2561 59.9224H50.3499C50.2217 59.9224 50.0948 59.9477 49.9765 59.9968C49.8581 60.0458 49.7505 60.1178 49.66 60.2084C49.5694 60.2991 49.4976 60.4067 49.4487 60.5252C49.3998 60.6436 49.3747 60.7705 49.3749 60.8987V64.8062C49.3749 65.3437 49.8124 65.7812 50.3499 65.7812ZM25.7411 43.2224H29.6474C29.7756 43.2228 29.9027 43.1978 30.0213 43.1489C30.1398 43.1001 30.2476 43.0283 30.3384 42.9377C30.4292 42.8472 30.5013 42.7396 30.5504 42.6211C30.5996 42.5027 30.6249 42.3757 30.6249 42.2474V38.3399C30.625 38.2116 30.5999 38.0845 30.5508 37.9659C30.5017 37.8473 30.4297 37.7395 30.3389 37.6488C30.248 37.5581 30.1402 37.4862 30.0215 37.4373C29.9029 37.3884 29.7757 37.3634 29.6474 37.3637H25.7411C25.613 37.3637 25.4861 37.3889 25.3677 37.438C25.2493 37.4871 25.1418 37.559 25.0512 37.6497C24.9607 37.7404 24.8889 37.848 24.84 37.9664C24.7911 38.0849 24.766 38.2118 24.7661 38.3399V42.2474C24.7661 42.7862 25.2024 43.2224 25.7411 43.2224ZM33.9436 43.2224H37.8499C37.9781 43.2228 38.1052 43.1978 38.2238 43.1489C38.3423 43.1001 38.4501 43.0283 38.5409 42.9377C38.6317 42.8472 38.7038 42.7396 38.7529 42.6211C38.8021 42.5027 38.8274 42.3757 38.8274 42.2474V38.3399C38.8275 38.2116 38.8024 38.0845 38.7533 37.9659C38.7042 37.8473 38.6322 37.7395 38.5414 37.6488C38.4505 37.5581 38.3427 37.4862 38.224 37.4373C38.1054 37.3884 37.9782 37.3634 37.8499 37.3637H33.9436C33.8155 37.3637 33.6886 37.3889 33.5702 37.438C33.4518 37.4871 33.3443 37.559 33.2537 37.6497C33.1632 37.7404 33.0914 37.848 33.0425 37.9664C32.9935 38.0849 32.9685 38.2118 32.9686 38.3399V42.2474C32.9686 42.7862 33.4061 43.2224 33.9436 43.2224ZM42.1474 43.2224H46.0536C46.1819 43.2228 46.3089 43.1978 46.4275 43.1489C46.5461 43.1001 46.6539 43.0283 46.7447 42.9377C46.8355 42.8472 46.9075 42.7396 46.9567 42.6211C47.0058 42.5027 47.0311 42.3757 47.0311 42.2474V38.3399C47.0313 38.2116 47.0061 38.0845 46.957 37.9659C46.9079 37.8473 46.8359 37.7395 46.7451 37.6488C46.6543 37.5581 46.5465 37.4862 46.4278 37.4373C46.3091 37.3884 46.182 37.3634 46.0536 37.3637H42.1474C42.0192 37.3637 41.8923 37.3889 41.774 37.438C41.6556 37.4871 41.548 37.559 41.4575 37.6497C41.3669 37.7404 41.2951 37.848 41.2462 37.9664C41.1973 38.0849 41.1722 38.2118 41.1724 38.3399V42.2474C41.1724 42.7862 41.6086 43.2224 42.1474 43.2224ZM25.7411 35.7037H29.6474C30.1886 35.7037 30.6249 35.2662 30.6249 34.7274V30.8224C30.6252 30.694 30.6001 30.5667 30.5511 30.448C30.5021 30.3292 30.4301 30.2213 30.3393 30.1305C30.2485 30.0397 30.1406 29.9677 30.0218 29.9187C29.9031 29.8697 29.7758 29.8446 29.6474 29.8449H25.7411C25.6129 29.8449 25.4859 29.8702 25.3674 29.9194C25.249 29.9685 25.1414 30.0406 25.0508 30.1314C24.9602 30.2222 24.8885 30.33 24.8396 30.4486C24.7908 30.5671 24.7658 30.6942 24.7661 30.8224V34.7274C24.766 34.8556 24.7911 34.9825 24.84 35.1009C24.8889 35.2194 24.9607 35.327 25.0512 35.4177C25.1418 35.5083 25.2493 35.5803 25.3677 35.6293C25.4861 35.6784 25.613 35.7037 25.7411 35.7037ZM33.9436 35.7037H37.8499C38.3911 35.7037 38.8274 35.2662 38.8274 34.7274V30.8224C38.8277 30.694 38.8026 30.5667 38.7536 30.448C38.7046 30.3292 38.6326 30.2213 38.5418 30.1305C38.451 30.0397 38.3431 29.9677 38.2243 29.9187C38.1056 29.8697 37.9783 29.8446 37.8499 29.8449H33.9436C33.8154 29.8449 33.6884 29.8702 33.5699 29.9194C33.4515 29.9685 33.3439 30.0406 33.2533 30.1314C33.1627 30.2222 33.091 30.33 33.0421 30.4486C32.9933 30.5671 32.9683 30.6942 32.9686 30.8224V34.7274C32.9686 35.2662 33.4061 35.7037 33.9436 35.7037ZM42.1474 35.7037H46.0536C46.5949 35.7037 47.0311 35.2662 47.0311 34.7274V30.8224C47.0314 30.694 47.0064 30.5667 46.9574 30.448C46.9084 30.3292 46.8364 30.2213 46.7455 30.1305C46.6547 30.0397 46.5468 29.9677 46.4281 29.9187C46.3093 29.8697 46.1821 29.8446 46.0536 29.8449H42.1474C42.0191 29.8449 41.8921 29.8702 41.7737 29.9194C41.6552 29.9685 41.5476 30.0406 41.4571 30.1314C41.3665 30.2222 41.2947 30.33 41.2459 30.4486C41.197 30.5671 41.172 30.6942 41.1724 30.8224V34.7274C41.1722 34.8556 41.1973 34.9825 41.2462 35.1009C41.2951 35.2194 41.3669 35.327 41.4575 35.4177C41.548 35.5083 41.6556 35.5803 41.774 35.6293C41.8923 35.6784 42.0192 35.7037 42.1474 35.7037ZM50.3499 35.7037H54.2561C54.7974 35.7037 55.2336 35.2662 55.2336 34.7274V30.8224C55.2339 30.694 55.2089 30.5667 55.1599 30.448C55.1109 30.3292 55.0389 30.2213 54.948 30.1305C54.8572 30.0397 54.7493 29.9677 54.6306 29.9187C54.5118 29.8697 54.3846 29.8446 54.2561 29.8449H50.3499C50.2216 29.8449 50.0946 29.8702 49.9762 29.9194C49.8577 29.9685 49.7501 30.0406 49.6596 30.1314C49.569 30.2222 49.4972 30.33 49.4484 30.4486C49.3995 30.5671 49.3745 30.6942 49.3749 30.8224V34.7274C49.3749 35.2662 49.8124 35.7037 50.3499 35.7037ZM25.7411 28.1849H29.6474C30.1886 28.1849 30.6249 27.7474 30.6249 27.2074V23.3012C30.6249 22.7637 30.1874 22.3262 29.6474 22.3262H25.7411C25.4825 22.3262 25.2345 22.4289 25.0517 22.6118C24.8688 22.7946 24.7661 23.0426 24.7661 23.3012V27.2074C24.7658 27.3357 24.7908 27.4627 24.8396 27.5813C24.8885 27.6999 24.9602 27.8077 25.0508 27.8985C25.1414 27.9893 25.249 28.0613 25.3674 28.1105C25.4859 28.1596 25.6129 28.1849 25.7411 28.1849ZM33.9436 28.1849H37.8499C38.3911 28.1849 38.8274 27.7474 38.8274 27.2074V23.3012C38.8274 22.7637 38.3899 22.3262 37.8499 22.3262H33.9436C33.685 22.3262 33.437 22.4289 33.2542 22.6118C33.0713 22.7946 32.9686 23.0426 32.9686 23.3012V27.2074C32.9686 27.7474 33.4061 28.1849 33.9436 28.1849ZM42.1474 28.1849H46.0536C46.5949 28.1849 47.0311 27.7474 47.0311 27.2074V23.3012C47.0311 22.7637 46.5936 22.3262 46.0536 22.3262H42.1474C41.8888 22.3262 41.6408 22.4289 41.4579 22.6118C41.2751 22.7946 41.1724 23.0426 41.1724 23.3012V27.2074C41.172 27.3357 41.197 27.4627 41.2459 27.5813C41.2947 27.6999 41.3665 27.8077 41.4571 27.8985C41.5476 27.9893 41.6552 28.0613 41.7737 28.1105C41.8921 28.1596 42.0191 28.1849 42.1474 28.1849ZM50.3499 28.1849H54.2561C54.7974 28.1849 55.2336 27.7474 55.2336 27.2074V23.3012C55.2336 22.7637 54.7961 22.3262 54.2561 22.3262H50.3499C50.0913 22.3262 49.8433 22.4289 49.6604 22.6118C49.4776 22.7946 49.3749 23.0426 49.3749 23.3012V27.2074C49.3749 27.7474 49.8124 28.1849 50.3499 28.1849Z" fill="#FCEEC3" stroke="#F2D385" stroke-width="2" mask="url(#path-2-inside-1_27_500)"/>
</svg>
