<svg width="85" height="85" viewBox="0 0 85 85" fill="none" xmlns="http://www.w3.org/2000/svg">
<path d="M7.96875 11.625H77.0312C77.4705 11.625 77.8915 11.7997 78.2021 12.1104C78.5128 12.421 78.6875 12.842 78.6875 13.2812V71.7188C78.6875 72.158 78.5128 72.579 78.2021 72.8896C77.8915 73.2003 77.4705 73.375 77.0312 73.375H7.96875C7.52948 73.375 7.10846 73.2003 6.79785 72.8896C6.48725 72.579 6.3125 72.158 6.3125 71.7188V13.2812C6.3125 12.842 6.48724 12.421 6.79785 12.1104C7.06955 11.8386 7.42566 11.6705 7.80469 11.6328L7.96875 11.625ZM53.1221 37.6787C52.5854 37.6788 52.0552 37.7965 51.5693 38.0244C51.0839 38.2522 50.6545 38.5839 50.3115 38.9961L37.3115 54.5938C37.1641 54.7705 36.9816 54.9153 36.7754 55.0176C36.5691 55.1198 36.3432 55.1772 36.1133 55.1875C35.8834 55.1977 35.6539 55.1605 35.4395 55.0771C35.2785 55.0145 35.1286 54.9269 34.9951 54.8184L34.8672 54.7031L29.1445 48.9805L29.0137 48.8555C28.343 48.2483 27.4685 47.9102 26.5596 47.9102C25.6508 47.9102 24.777 48.2485 24.1064 48.8555L23.9746 48.9805V48.9814L9.91797 63.0488L8.21191 64.7549H77.3975L76.0303 63.1152L55.9336 38.9961H55.9326C55.5897 38.584 55.1602 38.2521 54.6748 38.0244C54.189 37.7966 53.6587 37.6787 53.1221 37.6787ZM29.2188 22.9014C26.8396 22.9022 24.5578 23.8475 22.876 25.5303C21.1942 27.2132 20.2493 29.4958 20.25 31.875L20.2607 32.3164C20.3117 33.3439 20.5388 34.3563 20.9336 35.3086C21.3848 36.3968 22.0466 37.385 22.8799 38.2178C23.7132 39.0506 24.7024 39.7116 25.791 40.1621C26.8796 40.6126 28.0465 40.8441 29.2246 40.8438C30.4026 40.8433 31.5691 40.6113 32.6572 40.1602C33.7455 39.7089 34.7346 39.0472 35.5674 38.2139C36.4001 37.3806 37.0603 36.3913 37.5107 35.3027C37.9049 34.3502 38.1314 33.338 38.1816 32.3105L38.1924 31.8691C38.1915 29.4899 37.2464 27.2082 35.5635 25.5264C33.8805 23.8445 31.598 22.9007 29.2188 22.9014Z" fill="#FCEEC3" stroke="#F2D385" stroke-width="2"/>
</svg>
