<svg width="80" height="80" viewBox="0 0 80 80" fill="none" xmlns="http://www.w3.org/2000/svg">
<path d="M9.99951 47.4167C10.6847 47.4167 11.3422 47.6891 11.8267 48.1736C12.311 48.658 12.5834 49.3148 12.5835 49.9998V59.9998C12.5835 61.9668 13.3645 63.854 14.7554 65.2449C16.1462 66.6356 18.0327 67.4167 19.9995 67.4167H29.9995C30.6847 67.4167 31.3422 67.6891 31.8267 68.1736C32.3109 68.658 32.5834 69.3148 32.5835 69.9998C32.5835 70.6849 32.3111 71.3424 31.8267 71.8269C31.3422 72.3114 30.6847 72.5837 29.9995 72.5837H19.9995C16.6624 72.5837 13.4618 71.2578 11.1021 68.8982C8.74222 66.5384 7.4165 63.3371 7.4165 59.9998V49.9998C7.41659 49.3147 7.68895 48.658 8.17334 48.1736C8.65773 47.6892 9.31449 47.4168 9.99951 47.4167ZM69.9995 47.4167C70.6847 47.4167 71.3422 47.6891 71.8267 48.1736C72.311 48.658 72.5834 49.3148 72.5835 49.9998V59.9998C72.5835 63.3371 71.2578 66.5384 68.8979 68.8982C66.5381 71.258 63.3368 72.5837 59.9995 72.5837H49.9995C49.3146 72.5837 48.6577 72.3112 48.1733 71.8269C47.6889 71.3424 47.4165 70.6849 47.4165 69.9998C47.4166 69.3147 47.6889 68.658 48.1733 68.1736C48.6577 67.6892 49.3145 67.4168 49.9995 67.4167H59.9995C61.9665 67.4167 63.8537 66.6358 65.2446 65.2449C66.6355 63.854 67.4165 61.9668 67.4165 59.9998V49.9998C67.4166 49.3147 67.6889 48.658 68.1733 48.1736C68.6577 47.6892 69.3145 47.4168 69.9995 47.4167ZM19.9995 7.41675H29.9995C30.6847 7.41675 31.3422 7.68912 31.8267 8.17358C32.311 8.65796 32.5834 9.31481 32.5835 9.99976C32.5835 10.6849 32.3111 11.3424 31.8267 11.8269C31.3422 12.3114 30.6847 12.5837 29.9995 12.5837H19.9995C18.0326 12.5838 16.1462 13.3648 14.7554 14.7556C13.3646 16.1464 12.5836 18.0329 12.5835 19.9998V29.9998C12.5835 30.6849 12.3111 31.3424 11.8267 31.8269C11.3422 32.3114 10.6847 32.5837 9.99951 32.5837C9.31456 32.5837 8.65772 32.3112 8.17334 31.8269C7.68887 31.3424 7.4165 30.6849 7.4165 29.9998V19.9998C7.41659 16.6626 8.74229 13.4621 11.1021 11.1023C13.4618 8.74254 16.6623 7.41683 19.9995 7.41675ZM49.9995 7.41675H59.9995C63.3368 7.41675 66.5381 8.74246 68.8979 11.1023C71.2576 13.462 72.5834 16.6626 72.5835 19.9998V29.9998C72.5835 30.6849 72.3111 31.3424 71.8267 31.8269C71.3422 32.3114 70.6847 32.5837 69.9995 32.5837C69.3146 32.5837 68.6577 32.3112 68.1733 31.8269C67.6889 31.3424 67.4165 30.6849 67.4165 29.9998V19.9998C67.4164 18.0329 66.6353 16.1464 65.2446 14.7556C63.8537 13.3647 61.9665 12.5837 59.9995 12.5837H49.9995C49.3146 12.5837 48.6577 12.3112 48.1733 11.8269C47.6889 11.3424 47.4165 10.6849 47.4165 9.99976C47.4166 9.31473 47.6889 8.65798 48.1733 8.17358C48.6577 7.68919 49.3145 7.41683 49.9995 7.41675Z" fill="#FCEEC3" stroke="#F2D385" stroke-width="1.5"/>
<path fill-rule="evenodd" clip-rule="evenodd" d="M42.4816 43.5186H44.5186V45.5556H42.4816V43.5186ZM44.5186 45.5556H46.5556V47.5927H44.5186V45.5556ZM44.5186 47.5927H46.5556V49.6297H44.5186V47.5927ZM48.5927 47.5927H50.6297V49.6297H48.5927V47.5927ZM48.5927 49.6297H50.6297V51.6667H48.5927V49.6297ZM42.4816 47.5927H44.5186V49.6297H42.4816V47.5927ZM46.5556 47.5927H48.5927V49.6297H46.5556V47.5927ZM46.5556 49.6297H48.5927V51.6667H46.5556V49.6297ZM52.6667 47.5927H54.7038V49.6297H52.6667V47.5927ZM52.6667 45.5556H54.7038V47.5927H52.6667V45.5556ZM54.7038 43.5186H56.7408V45.5556H54.7038V43.5186ZM50.6297 47.5927H52.6667V49.6297H50.6297V47.5927ZM50.6297 49.6297H52.6667V51.6667H50.6297V49.6297ZM48.5927 51.6667H50.6297V53.7038H48.5927V51.6667ZM46.5556 51.6667H48.5927V53.7038H46.5556V51.6667ZM50.6297 51.6667H52.6667V53.7038H50.6297V51.6667ZM52.6667 51.6667H54.7038V53.7038H52.6667V51.6667ZM48.5927 53.7038H50.6297V55.7408H48.5927V53.7038ZM44.5186 53.7038H46.5556V55.7408H44.5186V53.7038ZM46.5556 53.7038H48.5927V55.7408H46.5556V53.7038ZM42.4816 53.7038H44.5186V55.7408H42.4816V53.7038ZM42.4816 55.7408H44.5186V57.7779H42.4816V55.7408ZM44.5186 57.7779H46.5556V59.8149H44.5186V57.7779ZM46.5556 57.7779H48.5927V59.8149H46.5556V57.7779ZM50.6297 57.7779H52.6667V59.8149H50.6297V57.7779ZM52.6667 57.7779H54.7038V59.8149H52.6667V57.7779ZM50.6297 53.7038H52.6667V55.7408H50.6297V53.7038ZM52.6667 53.7038H54.7038V55.7408H52.6667V53.7038ZM54.7038 51.6667H56.7408V53.7038H54.7038V51.6667ZM54.7038 49.6297H56.7408V51.6667H54.7038V49.6297ZM54.7038 55.7408H56.7408V57.7779H54.7038V55.7408ZM54.7038 53.7038H56.7408V55.7408H54.7038V53.7038ZM56.7408 51.6667H58.7779V53.7038H56.7408V51.6667ZM56.7408 49.6297H58.7779V51.6667H56.7408V49.6297ZM58.7779 55.7408H60.8149V57.7779H58.7779V55.7408ZM58.7779 51.6667H60.8149V53.7038H58.7779V51.6667ZM58.7779 53.7038H60.8149V55.7408H58.7779V53.7038ZM54.7038 47.5927H56.7408V49.6297H54.7038V47.5927ZM42.4816 49.6297H44.5186V51.6667H42.4816V49.6297ZM40.4445 49.6297H42.4816V51.6667H40.4445V49.6297ZM40.4445 51.6667H42.4816V53.7038H40.4445V51.6667ZM44.5186 51.6667H46.5556V53.7038H44.5186V51.6667ZM38.4075 51.6667H40.4445V53.7038H38.4075V51.6667ZM42.4816 51.6667H44.5186V53.7038H42.4816V51.6667ZM38.4075 53.7038H40.4445V55.7408H38.4075V53.7038ZM38.4075 55.7408H40.4445V57.7779H38.4075V55.7408ZM38.4075 17.0371H40.4445V19.0741H38.4075V17.0371ZM40.4445 19.0741H42.4816V21.1112H40.4445V19.0741ZM38.4075 23.1482H40.4445V25.1853H38.4075V23.1482ZM40.4445 25.1853H42.4816V27.2223H40.4445V25.1853ZM38.4075 27.2223H40.4445V29.2593H38.4075V27.2223ZM40.4445 27.2223H42.4816V29.2593H40.4445V27.2223ZM40.4445 29.2593H42.4816V31.2964H40.4445V29.2593ZM40.4445 31.2964H42.4816V33.3334H40.4445V31.2964ZM38.4075 33.3334H40.4445V35.3704H38.4075V33.3334ZM40.4445 33.3334H42.4816V35.3704H40.4445V33.3334ZM38.4075 35.3704H40.4445V37.4075H38.4075V35.3704ZM18.0371 37.4075H20.0741V39.4445H18.0371V37.4075ZM20.0741 39.4445H22.1112V41.4816H20.0741V39.4445ZM24.1482 37.4075H26.1853V39.4445H24.1482V37.4075ZM24.1482 39.4445H26.1853V41.4816H24.1482V39.4445ZM26.1853 37.4075H28.2223V39.4445H26.1853V37.4075ZM28.2223 39.4445H30.2593V41.4816H28.2223V39.4445ZM30.2593 37.4075H32.2964V39.4445H30.2593V37.4075ZM32.2964 39.4445H34.3334V41.4816H32.2964V39.4445ZM32.2964 37.4075H34.3334V39.4445H32.2964V37.4075ZM34.3334 37.4075H36.3704V39.4445H34.3334V37.4075ZM36.3704 37.4075H38.4075V39.4445H36.3704V37.4075ZM38.4075 39.4445H40.4445V41.4816H38.4075V39.4445ZM42.4816 39.4445H44.5186V41.4816H42.4816V39.4445ZM44.5186 37.4075H46.5556V39.4445H44.5186V37.4075ZM46.5556 37.4075H48.5927V39.4445H46.5556V37.4075ZM48.5927 37.4075H50.6297V39.4445H48.5927V37.4075ZM46.5556 41.4816H48.5927V43.5186H46.5556V41.4816ZM42.4816 59.8149H44.5186V61.8519H42.4816V59.8149ZM40.4445 59.8149H42.4816V61.8519H40.4445V59.8149ZM40.4445 41.4816H42.4816V43.5186H40.4445V41.4816ZM38.4075 41.4816H40.4445V43.5186H38.4075V41.4816ZM38.4075 43.5186H40.4445V45.5556H38.4075V43.5186ZM38.4075 45.5556H40.4445V47.5927H38.4075V45.5556ZM60.8149 43.5186H62.8519V45.5556H60.8149V43.5186ZM58.7779 45.5556H60.8149V47.5927H58.7779V45.5556ZM60.8149 49.6297H62.8519V51.6667H60.8149V49.6297ZM50.6297 41.4816H52.6667V43.5186H50.6297V41.4816ZM52.6667 39.4445H54.7038V41.4816H52.6667V39.4445ZM60.8149 39.4445H62.8519V41.4816H60.8149V39.4445ZM60.8149 41.4816H62.8519V43.5186H60.8149V41.4816ZM58.7779 41.4816H60.8149V43.5186H58.7779V41.4816ZM60.8149 57.7779H62.8519V59.8149H60.8149V57.7779ZM58.7779 59.8149H60.8149V61.8519H58.7779V59.8149ZM54.7038 59.8149H56.7408V61.8519H54.7038V59.8149ZM60.8149 59.8149H62.8519V61.8519H60.8149V59.8149Z" fill="#FCEEC3"/>
<path fill-rule="evenodd" clip-rule="evenodd" d="M46.5557 19.0742H60.815V33.3335H46.5557V19.0742ZM20.0742 19.0742H34.3335V33.3335H20.0742V19.0742ZM20.0742 45.5557H34.3335V59.815H20.0742V45.5557ZM52.6668 25.1853H54.7039V27.2224H52.6668V25.1853ZM26.1853 25.1853H28.2224V27.2224H26.1853V25.1853ZM26.1853 51.6668H28.2224V53.7039H26.1853V51.6668Z" stroke="#FCEEC3" stroke-width="2"/>
</svg>
