<svg width="30" height="30" viewBox="0 0 30 30" fill="none" xmlns="http://www.w3.org/2000/svg">
<g clip-path="url(#clip0_32_534)">
<path d="M15.002 0.5C16.3351 0.500166 17.6177 0.670714 18.8516 1.00977C20.0882 1.3496 21.2376 1.83968 22.3008 2.47949C23.371 3.12355 24.3511 3.88081 25.2412 4.75195C26.1267 5.61863 26.8856 6.59398 27.5176 7.67871C28.1499 8.76404 28.6363 9.92085 28.9766 11.1494C29.2733 12.2212 29.4438 13.3384 29.4883 14.502L29.5 15.0039C29.4997 16.3363 29.3291 17.6183 28.9902 18.8516C28.6504 20.0882 28.1603 21.2376 27.5205 22.3008C26.8764 23.371 26.1192 24.3511 25.248 25.2412C24.3814 26.1267 23.406 26.8856 22.3213 27.5176C21.236 28.1499 20.0791 28.6363 18.8506 28.9766C17.6259 29.3157 16.3418 29.4895 14.9971 29.499C13.6643 29.4988 12.382 29.3292 11.1484 28.9902C9.91183 28.6504 8.76244 28.1603 7.69922 27.5205C6.62896 26.8764 5.64887 26.1192 4.75879 25.248C3.87329 24.3814 3.11439 23.406 2.48242 22.3213C1.85014 21.236 1.36366 20.0791 1.02344 18.8506C0.684572 17.6268 0.509752 16.3437 0.5 15C0.5 13.6662 0.670548 12.3829 1.00977 11.1484C1.3496 9.91183 1.83968 8.76244 2.47949 7.69922C3.12355 6.62896 3.88081 5.64887 4.75195 4.75879C5.61863 3.87329 6.59398 3.11439 7.67871 2.48242C8.76404 1.85014 9.92085 1.36366 11.1494 1.02344C12.3738 0.684407 13.6576 0.509597 15.002 0.5ZM12.1875 16.9883L8.15918 12.96L5.45996 15.6592L12.1875 22.3867L24.54 10.0342L21.8408 7.33496L12.1875 16.9883Z" fill="#F2CB69" stroke="#F2CB69"/>
</g>
<defs>
<clipPath id="clip0_32_534">
<rect width="30" height="30" fill="white"/>
</clipPath>
</defs>
</svg>
